<svg xmlns="http://www.w3.org/2000/svg" version="1.1" xmlns:xlink="http://www.w3.org/1999/xlink" width="200" height="200"><svg xmlns="http://www.w3.org/2000/svg" version="1.1" xmlns:xlink="http://www.w3.org/1999/xlink" width="200" height="200"><svg xmlns="http://www.w3.org/2000/svg" version="1.1" xmlns:xlink="http://www.w3.org/1999/xlink" viewBox="0 0 200 200"><rect width="200" height="200" fill="url('#gradient')"></rect><defs><linearGradient id="gradient" gradientTransform="rotate(45 0.5 0.5)"><stop offset="0%" stop-color="#1d1e1a"></stop><stop offset="100%" stop-color="#1d1e1a"></stop></linearGradient></defs><g><g fill="#ffffff" transform="matrix(6.751648351648352,0,0,6.751648351648352,3.589117953017521,150.63736263736263)" stroke="#145880" stroke-width="0.2"><path d="M0.95-10.57L4.03-10.57L4.14-9.33Q5.26-10.76 7.16-10.76L7.16-10.76Q9.16-10.76 9.86-9.17L9.86-9.17Q10.94-10.76 12.97-10.76L12.97-10.76Q16.18-10.76 16.27-6.88L16.27-6.88L16.27 0L12.97 0L12.97-6.67Q12.97-7.48 12.70-7.85Q12.42-8.22 11.70-8.22L11.70-8.22Q10.72-8.22 10.24-7.35L10.24-7.35L10.25-7.22L10.25 0L6.95 0L6.95-6.65Q6.95-7.48 6.69-7.85Q6.43-8.22 5.68-8.22L5.68-8.22Q4.74-8.22 4.24-7.35L4.24-7.35L4.24 0L0.95 0L0.95-10.57ZM21.37-15L21.37-9.43Q22.42-10.76 24.06-10.76L24.06-10.76Q25.81-10.76 26.70-9.73Q27.59-8.69 27.61-6.67L27.61-6.67L27.61 0L24.31 0L24.31-6.59Q24.31-7.43 23.96-7.83Q23.62-8.22 22.80-8.22L22.80-8.22Q21.79-8.22 21.37-7.58L21.37-7.58L21.37 0L18.08 0L18.08-15L21.37-15Z"></path></g></g></svg></svg><style>@media (prefers-color-scheme: light) { :root { filter: none; } }
@media (prefers-color-scheme: dark) { :root { filter: none; } }
</style></svg>